<?xml version="1.0" standalone="no"?>
<!DOCTYPE svg PUBLIC "-//W3C//DTD SVG 20010904//EN"
 "http://www.w3.org/TR/2001/REC-SVG-20010904/DTD/svg10.dtd">
<svg version="1.0" xmlns="http://www.w3.org/2000/svg"
 width="16.000000pt" height="16.000000pt" viewBox="0 0 16.000000 16.000000"
 preserveAspectRatio="xMidYMid meet">
<metadata>
Created by potrace 1.11, written by Peter Selinger 2001-2013
</metadata>
<g transform="translate(0.000000,16.000000) scale(0.001600,-0.001600)"
fill="#000000" stroke="none">
<path d="M3330 6855 l0 -375 1445 0 1445 0 0 375 0 375 -1445 0 -1445 0 0
-375z"/>
<path d="M6445 5005 l0 -2226 940 4 c517 3 954 7 970 10 17 3 55 9 85 12 65 7
276 53 299 65 9 5 43 18 76 31 409 150 692 448 891 936 51 125 112 331 130
443 3 14 9 48 14 75 8 45 17 108 26 190 24 204 23 731 -1 875 -2 14 -6 54 -10
90 -3 36 -8 74 -10 85 -2 11 -7 37 -10 58 -31 224 -114 485 -221 699 -130 259
-315 479 -524 621 -120 81 -324 174 -425 193 -11 2 -40 8 -65 13 -50 11 -100
19 -175 27 -27 3 -63 8 -80 11 -16 3 -453 7 -970 10 l-940 4 0 -2226z m1705
1460 c219 -22 353 -69 488 -170 172 -130 313 -399 355 -680 3 -16 8 -46 11
-65 34 -195 40 -731 11 -1000 -12 -112 -18 -151 -36 -245 -27 -132 -81 -291
-132 -389 -112 -211 -300 -328 -597 -371 -79 -12 -962 -18 -969 -7 -4 8 -7
2862 -2 2930 1 11 73 13 409 8 224 -3 432 -8 462 -11z"/>
<path d="M110 4985 l0 -2205 1450 0 1450 0 0 375 0 375 -1034 0 -1033 0 -1
1818 c0 999 -1 1823 -1 1830 -1 9 -91 12 -416 12 l-415 0 0 -2205z"/>
<path d="M3330 4985 l0 -375 1445 0 1445 0 0 375 0 375 -1445 0 -1445 0 0
-375z"/>
<path d="M3330 3155 l0 -375 1445 0 1445 0 0 375 0 375 -1445 0 -1445 0 0
-375z"/>
</g>
</svg>
